<mxfile host="app.diagrams.net" modified="2021-09-27T02:31:35.976Z" agent="5.0 (Windows NT 10.0; Win64; x64) AppleWebKit/537.36 (KHTML, like Gecko) Chrome/93.0.4577.82 Safari/537.36" etag="YeVpjZExWDGGMkNa0myp" version="15.3.3" type="github">
  <diagram id="fYYmjzmX41KhnhmrD7sg" name="第 1 页">
    <mxGraphModel dx="1422" dy="762" grid="1" gridSize="10" guides="1" tooltips="1" connect="1" arrows="1" fold="1" page="1" pageScale="1" pageWidth="827" pageHeight="1169" math="0" shadow="0">
      <root>
        <mxCell id="0" />
        <mxCell id="1" parent="0" />
        <mxCell id="9UX8vcz3NQt4yauY_FG5-29" value="" style="rounded=0;whiteSpace=wrap;html=1;dashed=1;" vertex="1" parent="1">
          <mxGeometry x="260" y="670" width="220" height="260" as="geometry" />
        </mxCell>
        <mxCell id="9UX8vcz3NQt4yauY_FG5-9" style="edgeStyle=orthogonalEdgeStyle;rounded=0;orthogonalLoop=1;jettySize=auto;html=1;endArrow=open;sourcePerimeterSpacing=0;targetPerimeterSpacing=0;" edge="1" parent="1" source="9UX8vcz3NQt4yauY_FG5-1" target="9UX8vcz3NQt4yauY_FG5-2">
          <mxGeometry relative="1" as="geometry" />
        </mxCell>
        <mxCell id="9UX8vcz3NQt4yauY_FG5-1" value="APP业务故障拓扑" style="whiteSpace=wrap;html=1;" vertex="1" parent="1">
          <mxGeometry x="670" y="30" width="160" height="60" as="geometry" />
        </mxCell>
        <mxCell id="9UX8vcz3NQt4yauY_FG5-8" style="edgeStyle=orthogonalEdgeStyle;rounded=0;orthogonalLoop=1;jettySize=auto;html=1;endArrow=open;sourcePerimeterSpacing=0;targetPerimeterSpacing=0;" edge="1" parent="1" source="9UX8vcz3NQt4yauY_FG5-2" target="9UX8vcz3NQt4yauY_FG5-3">
          <mxGeometry relative="1" as="geometry" />
        </mxCell>
        <mxCell id="9UX8vcz3NQt4yauY_FG5-12" style="edgeStyle=orthogonalEdgeStyle;rounded=0;orthogonalLoop=1;jettySize=auto;html=1;endArrow=open;sourcePerimeterSpacing=0;targetPerimeterSpacing=0;" edge="1" parent="1" source="9UX8vcz3NQt4yauY_FG5-2" target="9UX8vcz3NQt4yauY_FG5-11">
          <mxGeometry relative="1" as="geometry" />
        </mxCell>
        <mxCell id="9UX8vcz3NQt4yauY_FG5-2" value="" style="shape=image;verticalLabelPosition=bottom;verticalAlign=top;aspect=fixed;imageAspect=0;image=data:image/png,iVBORw0KGgoAAAANSUhEUgAAAMgAAADICAYAAACtWK6eAAAGyklEQVR4Xu3XUYpdZRSE0ZuZ6chCRmaGJnlRAhqKvmdD+Hr5vLuh/upTK355+c8LeIH/fYEv3sYLeIH/fwEfiL8OL/CLF/CB+PPwAj4QfwNe4GMvQJCPvZuf+iQv4AP5JEWL+bEX8IF87N381Cd5AR/IJylazI+9gA/k33f74/V6ff3YM/7zU99er9f3N3/Huz9eyfHuOzzy8z6Qnz+Qv9581T9/kw+kkOPNKp75cR+ID+S//pJ+hw/9mb/wN3+LD8QH4gP5xUfkA/GB+EB8IJOzP/7ntvBv90qOqbTrI4IQhCAEmXamsryVHFNp10cEIQhBCDLtTGV5Kzmm0q6PCEIQghBk2pnK8lZyTKVdHxGEIAQhyLQzleWt5JhKuz4iCEEIQpBpZyrLW8kxlXZ9RBCCEIQg085UlreSYyrt+oggBCEIQaadqSxvJcdU2vURQQhCEIJMO1NZ3kqOqbTrI4IQhCAEmXamsryVHFNp10cEIQhBCDLtTGV5Kzmm0q6PCEIQghBk2pnK8lZyTKVdHxGEIAQhyLQzleWt5JhKuz4iCEEIQpBpZyrLW8kxlXZ9RBCCEIQg085UlreSYyrt+oggBCEIQaadqSxvJcdU2vURQQhCEIJMO1NZ3kqOqbTrI4IQhCAEmXamsryVHFNp10cEIQhBCDLtTGV5Kzmm0q6PCEIQghBk2pnK8lZyTKVdHxGEIAQhyLQzleWt5JhKuz4iCEEIQpBpZyrLW8kxlXZ9RBCCEIQg085UlreSYyrt+oggBCEIQaadqSxvJcdU2vURQQhCEIJMO1NZ3kqOqbTrI4IQhCAEmXamsryVHFNp10cEIQhBCDLtTGV5Kzmm0q6PCEIQghBk2pnK8lZyTKVdHxGEIAQhyLQzleWt5JhKuz4iCEEIQpBpZyrLW8kxlXZ9RBCCEIQg085UlreSYyrt+oggBCEIQaadqSxvJcdU2vURQQhCEIJMO1NZ3kqOqbTrI4IQhCAEmXamsryVHFNp10cEIQhBCDLtTGV5Kzmm0q6PCEIQghBk2pnK8lZyTKVdHxGEIAQhyLQzleWt5JhKuz4iCEEIQpBpZyrLW8kxlXZ9RBCCEIQg085UlreSYyrt+oggBCEIQaadqSxvJcdU2vURQQhCEIJMO1NZ3kqOqbTrI4IQhCAEmXamsryVHFNp10cEIQhBCDLtTGV5Kzmm0q6PCEIQghBk2pnK8lZyTKVdHxGEIAQhyLQzleWt5JhKuz4iCEEIQpBpZyrLW8kxlXZ9RBCCEIQg085UlreSYyrt+oggBCEIQaadqSxvJcdU2vURQQhCEIJMO1NZ3kqOqbTrI4IQhCAEmXamsryVHFNp10cEIQhBCDLtTGV5Kzmm0q6PCEIQghBk2pnK8lZyTKVdHxGEIAQhyLQzleWt5JhKuz4iCEEIQpBpZyrLW8kxlXZ9RBCCEIQg085UlreSYyrt+oggBCEIQaadqSxvJcdU2vURQQhCEIJMO1NZ3kqOqbTrI4IQhCAEmXamsryVHFNp10cEIQhBCDLtTGV5Kzmm0q6PCEIQghBk2pnK8lZyTKVdHxGEIAQhyLQzleWt5JhKuz4iCEEIQpBpZyrLW8kxlXZ9RBCCEIQg085UlreSYyrt+oggBCEIQaadqSxvJcdU2vURQQhCEIJMO1NZ3kqOqbTrI4IQhCAEmXamsryVHFNp10cEIQhBCDLtTGV5Kzmm0q6PCEIQghBk2pnK8lZyTKVdHxGEIAQhyLQzleWt5JhKuz4iCEEIQpBpZyrLW8kxlXZ9RBCCEIQg085UlreSYyrt+oggBCEIQaadqSxvJcdU2vURQQhCEIJMO1NZ3kqOqbTrI4IQhCAEmXamsryVHFNp10cEIQhBCDLtTGV5Kzmm0q6PCEIQghBk2pnK8lZyTKVdHxGEIAQhyLQzleWt5JhKuz4iCEEIQpBpZyrLW8kxlXZ9RBCCEIQg085UlreSYyrt+oggBCEIQaadqSxvJcdU2vURQQhCEIJMO1NZ3kqOqbTrI4IQhCAEmXamsryVHFNp10cEIQhBCDLtTGV5Kzmm0q6PCEIQghBk2pnK8lZyTKVdHxGEIAQhyLQzleWt5JhKuz4iCEEIQpBpZyrLW8kxlXZ9RBCCEIQg085UlreSYyrt+oggBCEIQaadqSxvJcdU2vURQQhCEIJMO1NZ3kqOqbTrI4L8LMjXNx/82+v1+v7m73j3x398IIUc777DIz/vA3nkGf2S6gv4QKrNyvXIC/hAHnlGv6T6Aj6QarNyPfICPpBHntEvqb6AD6TarFyPvIAP5JFn9EuqL+ADqTYr1yMv8DefC9znvsTj7AAAAABJRU5ErkJggg==;imageBorder=#000000;" vertex="1" parent="1">
          <mxGeometry x="730" y="150" width="40" height="40" as="geometry" />
        </mxCell>
        <mxCell id="9UX8vcz3NQt4yauY_FG5-16" style="edgeStyle=orthogonalEdgeStyle;rounded=0;orthogonalLoop=1;jettySize=auto;html=1;endArrow=open;sourcePerimeterSpacing=0;targetPerimeterSpacing=0;" edge="1" parent="1" source="9UX8vcz3NQt4yauY_FG5-3" target="9UX8vcz3NQt4yauY_FG5-15">
          <mxGeometry relative="1" as="geometry" />
        </mxCell>
        <mxCell id="9UX8vcz3NQt4yauY_FG5-3" value="APP登录故障" style="whiteSpace=wrap;html=1;" vertex="1" parent="1">
          <mxGeometry x="290" y="280" width="160" height="60" as="geometry" />
        </mxCell>
        <mxCell id="9UX8vcz3NQt4yauY_FG5-26" style="edgeStyle=orthogonalEdgeStyle;rounded=0;orthogonalLoop=1;jettySize=auto;html=1;endArrow=open;sourcePerimeterSpacing=0;targetPerimeterSpacing=0;" edge="1" parent="1" source="9UX8vcz3NQt4yauY_FG5-11" target="9UX8vcz3NQt4yauY_FG5-25">
          <mxGeometry relative="1" as="geometry" />
        </mxCell>
        <mxCell id="9UX8vcz3NQt4yauY_FG5-11" value="H5页面故障" style="whiteSpace=wrap;html=1;" vertex="1" parent="1">
          <mxGeometry x="1200" y="280" width="160" height="60" as="geometry" />
        </mxCell>
        <mxCell id="9UX8vcz3NQt4yauY_FG5-13" value="云负载均衡故障" style="whiteSpace=wrap;html=1;" vertex="1" parent="1">
          <mxGeometry x="40" y="530" width="160" height="60" as="geometry" />
        </mxCell>
        <mxCell id="9UX8vcz3NQt4yauY_FG5-17" style="edgeStyle=orthogonalEdgeStyle;rounded=0;orthogonalLoop=1;jettySize=auto;html=1;endArrow=open;sourcePerimeterSpacing=0;targetPerimeterSpacing=0;" edge="1" parent="1" source="9UX8vcz3NQt4yauY_FG5-15" target="9UX8vcz3NQt4yauY_FG5-13">
          <mxGeometry relative="1" as="geometry" />
        </mxCell>
        <mxCell id="9UX8vcz3NQt4yauY_FG5-20" style="edgeStyle=orthogonalEdgeStyle;rounded=0;orthogonalLoop=1;jettySize=auto;html=1;endArrow=open;sourcePerimeterSpacing=0;targetPerimeterSpacing=0;" edge="1" parent="1" source="9UX8vcz3NQt4yauY_FG5-15" target="9UX8vcz3NQt4yauY_FG5-19">
          <mxGeometry relative="1" as="geometry" />
        </mxCell>
        <mxCell id="9UX8vcz3NQt4yauY_FG5-23" style="edgeStyle=orthogonalEdgeStyle;rounded=0;orthogonalLoop=1;jettySize=auto;html=1;endArrow=open;sourcePerimeterSpacing=0;targetPerimeterSpacing=0;" edge="1" parent="1" source="9UX8vcz3NQt4yauY_FG5-15" target="9UX8vcz3NQt4yauY_FG5-22">
          <mxGeometry relative="1" as="geometry" />
        </mxCell>
        <mxCell id="9UX8vcz3NQt4yauY_FG5-35" style="edgeStyle=orthogonalEdgeStyle;rounded=0;orthogonalLoop=1;jettySize=auto;html=1;endArrow=open;sourcePerimeterSpacing=0;targetPerimeterSpacing=0;" edge="1" parent="1" source="9UX8vcz3NQt4yauY_FG5-15" target="9UX8vcz3NQt4yauY_FG5-34">
          <mxGeometry relative="1" as="geometry" />
        </mxCell>
        <mxCell id="9UX8vcz3NQt4yauY_FG5-15" value="" style="shape=image;verticalLabelPosition=bottom;verticalAlign=top;aspect=fixed;imageAspect=0;image=data:image/png,iVBORw0KGgoAAAANSUhEUgAAAMgAAADICAYAAACtWK6eAAAGyklEQVR4Xu3XUYpdZRSE0ZuZ6chCRmaGJnlRAhqKvmdD+Hr5vLuh/upTK355+c8LeIH/fYEv3sYLeIH/fwEfiL8OL/CLF/CB+PPwAj4QfwNe4GMvQJCPvZuf+iQv4AP5JEWL+bEX8IF87N381Cd5AR/IJylazI+9gA/k33f74/V6ff3YM/7zU99er9f3N3/Huz9eyfHuOzzy8z6Qnz+Qv9581T9/kw+kkOPNKp75cR+ID+S//pJ+hw/9mb/wN3+LD8QH4gP5xUfkA/GB+EB8IJOzP/7ntvBv90qOqbTrI4IQhCAEmXamsryVHFNp10cEIQhBCDLtTGV5Kzmm0q6PCEIQghBk2pnK8lZyTKVdHxGEIAQhyLQzleWt5JhKuz4iCEEIQpBpZyrLW8kxlXZ9RBCCEIQg085UlreSYyrt+oggBCEIQaadqSxvJcdU2vURQQhCEIJMO1NZ3kqOqbTrI4IQhCAEmXamsryVHFNp10cEIQhBCDLtTGV5Kzmm0q6PCEIQghBk2pnK8lZyTKVdHxGEIAQhyLQzleWt5JhKuz4iCEEIQpBpZyrLW8kxlXZ9RBCCEIQg085UlreSYyrt+oggBCEIQaadqSxvJcdU2vURQQhCEIJMO1NZ3kqOqbTrI4IQhCAEmXamsryVHFNp10cEIQhBCDLtTGV5Kzmm0q6PCEIQghBk2pnK8lZyTKVdHxGEIAQhyLQzleWt5JhKuz4iCEEIQpBpZyrLW8kxlXZ9RBCCEIQg085UlreSYyrt+oggBCEIQaadqSxvJcdU2vURQQhCEIJMO1NZ3kqOqbTrI4IQhCAEmXamsryVHFNp10cEIQhBCDLtTGV5Kzmm0q6PCEIQghBk2pnK8lZyTKVdHxGEIAQhyLQzleWt5JhKuz4iCEEIQpBpZyrLW8kxlXZ9RBCCEIQg085UlreSYyrt+oggBCEIQaadqSxvJcdU2vURQQhCEIJMO1NZ3kqOqbTrI4IQhCAEmXamsryVHFNp10cEIQhBCDLtTGV5Kzmm0q6PCEIQghBk2pnK8lZyTKVdHxGEIAQhyLQzleWt5JhKuz4iCEEIQpBpZyrLW8kxlXZ9RBCCEIQg085UlreSYyrt+oggBCEIQaadqSxvJcdU2vURQQhCEIJMO1NZ3kqOqbTrI4IQhCAEmXamsryVHFNp10cEIQhBCDLtTGV5Kzmm0q6PCEIQghBk2pnK8lZyTKVdHxGEIAQhyLQzleWt5JhKuz4iCEEIQpBpZyrLW8kxlXZ9RBCCEIQg085UlreSYyrt+oggBCEIQaadqSxvJcdU2vURQQhCEIJMO1NZ3kqOqbTrI4IQhCAEmXamsryVHFNp10cEIQhBCDLtTGV5Kzmm0q6PCEIQghBk2pnK8lZyTKVdHxGEIAQhyLQzleWt5JhKuz4iCEEIQpBpZyrLW8kxlXZ9RBCCEIQg085UlreSYyrt+oggBCEIQaadqSxvJcdU2vURQQhCEIJMO1NZ3kqOqbTrI4IQhCAEmXamsryVHFNp10cEIQhBCDLtTGV5Kzmm0q6PCEIQghBk2pnK8lZyTKVdHxGEIAQhyLQzleWt5JhKuz4iCEEIQpBpZyrLW8kxlXZ9RBCCEIQg085UlreSYyrt+oggBCEIQaadqSxvJcdU2vURQQhCEIJMO1NZ3kqOqbTrI4IQhCAEmXamsryVHFNp10cEIQhBCDLtTGV5Kzmm0q6PCEIQghBk2pnK8lZyTKVdHxGEIAQhyLQzleWt5JhKuz4iCEEIQpBpZyrLW8kxlXZ9RBCCEIQg085UlreSYyrt+oggBCEIQaadqSxvJcdU2vURQQhCEIJMO1NZ3kqOqbTrI4IQhCAEmXamsryVHFNp10cEIQhBCDLtTGV5Kzmm0q6PCEIQghBk2pnK8lZyTKVdHxGEIAQhyLQzleWt5JhKuz4iCEEIQpBpZyrLW8kxlXZ9RBCCEIQg085UlreSYyrt+oggBCEIQaadqSxvJcdU2vURQQhCEIJMO1NZ3kqOqbTrI4IQhCAEmXamsryVHFNp10cEIQhBCDLtTGV5Kzmm0q6PCEIQghBk2pnK8lZyTKVdHxGEIAQhyLQzleWt5JhKuz4iCEEIQpBpZyrLW8kxlXZ9RBCCEIQg085UlreSYyrt+oggBCEIQaadqSxvJcdU2vURQQhCEIJMO1NZ3kqOqbTrI4L8LMjXNx/82+v1+v7m73j3x398IIUc777DIz/vA3nkGf2S6gv4QKrNyvXIC/hAHnlGv6T6Aj6QarNyPfICPpBHntEvqb6AD6TarFyPvIAP5JFn9EuqL+ADqTYr1yMv8DefC9znvsTj7AAAAABJRU5ErkJggg==;imageBorder=#000000;" vertex="1" parent="1">
          <mxGeometry x="350" y="390" width="40" height="40" as="geometry" />
        </mxCell>
        <mxCell id="9UX8vcz3NQt4yauY_FG5-31" style="edgeStyle=orthogonalEdgeStyle;rounded=0;orthogonalLoop=1;jettySize=auto;html=1;endArrow=open;sourcePerimeterSpacing=0;targetPerimeterSpacing=0;" edge="1" parent="1" source="9UX8vcz3NQt4yauY_FG5-19" target="9UX8vcz3NQt4yauY_FG5-29">
          <mxGeometry relative="1" as="geometry" />
        </mxCell>
        <mxCell id="9UX8vcz3NQt4yauY_FG5-19" value="网关故障" style="whiteSpace=wrap;html=1;" vertex="1" parent="1">
          <mxGeometry x="290" y="530" width="160" height="60" as="geometry" />
        </mxCell>
        <mxCell id="9UX8vcz3NQt4yauY_FG5-22" value="PKI故障" style="whiteSpace=wrap;html=1;" vertex="1" parent="1">
          <mxGeometry x="710" y="530" width="160" height="60" as="geometry" />
        </mxCell>
        <mxCell id="9UX8vcz3NQt4yauY_FG5-24" value="H5 GATEWAY故障" style="whiteSpace=wrap;html=1;" vertex="1" parent="1">
          <mxGeometry x="1040" y="525" width="160" height="60" as="geometry" />
        </mxCell>
        <mxCell id="9UX8vcz3NQt4yauY_FG5-27" style="edgeStyle=orthogonalEdgeStyle;rounded=0;orthogonalLoop=1;jettySize=auto;html=1;endArrow=open;sourcePerimeterSpacing=0;targetPerimeterSpacing=0;" edge="1" parent="1" source="9UX8vcz3NQt4yauY_FG5-25" target="9UX8vcz3NQt4yauY_FG5-24">
          <mxGeometry relative="1" as="geometry" />
        </mxCell>
        <mxCell id="9UX8vcz3NQt4yauY_FG5-25" value="" style="shape=image;verticalLabelPosition=bottom;verticalAlign=top;aspect=fixed;imageAspect=0;image=data:image/png,iVBORw0KGgoAAAANSUhEUgAAAMgAAADICAYAAACtWK6eAAAGyklEQVR4Xu3XUYpdZRSE0ZuZ6chCRmaGJnlRAhqKvmdD+Hr5vLuh/upTK355+c8LeIH/fYEv3sYLeIH/fwEfiL8OL/CLF/CB+PPwAj4QfwNe4GMvQJCPvZuf+iQv4AP5JEWL+bEX8IF87N381Cd5AR/IJylazI+9gA/k33f74/V6ff3YM/7zU99er9f3N3/Huz9eyfHuOzzy8z6Qnz+Qv9581T9/kw+kkOPNKp75cR+ID+S//pJ+hw/9mb/wN3+LD8QH4gP5xUfkA/GB+EB8IJOzP/7ntvBv90qOqbTrI4IQhCAEmXamsryVHFNp10cEIQhBCDLtTGV5Kzmm0q6PCEIQghBk2pnK8lZyTKVdHxGEIAQhyLQzleWt5JhKuz4iCEEIQpBpZyrLW8kxlXZ9RBCCEIQg085UlreSYyrt+oggBCEIQaadqSxvJcdU2vURQQhCEIJMO1NZ3kqOqbTrI4IQhCAEmXamsryVHFNp10cEIQhBCDLtTGV5Kzmm0q6PCEIQghBk2pnK8lZyTKVdHxGEIAQhyLQzleWt5JhKuz4iCEEIQpBpZyrLW8kxlXZ9RBCCEIQg085UlreSYyrt+oggBCEIQaadqSxvJcdU2vURQQhCEIJMO1NZ3kqOqbTrI4IQhCAEmXamsryVHFNp10cEIQhBCDLtTGV5Kzmm0q6PCEIQghBk2pnK8lZyTKVdHxGEIAQhyLQzleWt5JhKuz4iCEEIQpBpZyrLW8kxlXZ9RBCCEIQg085UlreSYyrt+oggBCEIQaadqSxvJcdU2vURQQhCEIJMO1NZ3kqOqbTrI4IQhCAEmXamsryVHFNp10cEIQhBCDLtTGV5Kzmm0q6PCEIQghBk2pnK8lZyTKVdHxGEIAQhyLQzleWt5JhKuz4iCEEIQpBpZyrLW8kxlXZ9RBCCEIQg085UlreSYyrt+oggBCEIQaadqSxvJcdU2vURQQhCEIJMO1NZ3kqOqbTrI4IQhCAEmXamsryVHFNp10cEIQhBCDLtTGV5Kzmm0q6PCEIQghBk2pnK8lZyTKVdHxGEIAQhyLQzleWt5JhKuz4iCEEIQpBpZyrLW8kxlXZ9RBCCEIQg085UlreSYyrt+oggBCEIQaadqSxvJcdU2vURQQhCEIJMO1NZ3kqOqbTrI4IQhCAEmXamsryVHFNp10cEIQhBCDLtTGV5Kzmm0q6PCEIQghBk2pnK8lZyTKVdHxGEIAQhyLQzleWt5JhKuz4iCEEIQpBpZyrLW8kxlXZ9RBCCEIQg085UlreSYyrt+oggBCEIQaadqSxvJcdU2vURQQhCEIJMO1NZ3kqOqbTrI4IQhCAEmXamsryVHFNp10cEIQhBCDLtTGV5Kzmm0q6PCEIQghBk2pnK8lZyTKVdHxGEIAQhyLQzleWt5JhKuz4iCEEIQpBpZyrLW8kxlXZ9RBCCEIQg085UlreSYyrt+oggBCEIQaadqSxvJcdU2vURQQhCEIJMO1NZ3kqOqbTrI4IQhCAEmXamsryVHFNp10cEIQhBCDLtTGV5Kzmm0q6PCEIQghBk2pnK8lZyTKVdHxGEIAQhyLQzleWt5JhKuz4iCEEIQpBpZyrLW8kxlXZ9RBCCEIQg085UlreSYyrt+oggBCEIQaadqSxvJcdU2vURQQhCEIJMO1NZ3kqOqbTrI4IQhCAEmXamsryVHFNp10cEIQhBCDLtTGV5Kzmm0q6PCEIQghBk2pnK8lZyTKVdHxGEIAQhyLQzleWt5JhKuz4iCEEIQpBpZyrLW8kxlXZ9RBCCEIQg085UlreSYyrt+oggBCEIQaadqSxvJcdU2vURQQhCEIJMO1NZ3kqOqbTrI4IQhCAEmXamsryVHFNp10cEIQhBCDLtTGV5Kzmm0q6PCEIQghBk2pnK8lZyTKVdHxGEIAQhyLQzleWt5JhKuz4iCEEIQpBpZyrLW8kxlXZ9RBCCEIQg085UlreSYyrt+oggBCEIQaadqSxvJcdU2vURQQhCEIJMO1NZ3kqOqbTrI4IQhCAEmXamsryVHFNp10cEIQhBCDLtTGV5Kzmm0q6PCEIQghBk2pnK8lZyTKVdHxGEIAQhyLQzleWt5JhKuz4iCEEIQpBpZyrLW8kxlXZ9RBCCEIQg085UlreSYyrt+oggBCEIQaadqSxvJcdU2vURQQhCEIJMO1NZ3kqOqbTrI4L8LMjXNx/82+v1+v7m73j3x398IIUc777DIz/vA3nkGf2S6gv4QKrNyvXIC/hAHnlGv6T6Aj6QarNyPfICPpBHntEvqb6AD6TarFyPvIAP5JFn9EuqL+ADqTYr1yMv8DefC9znvsTj7AAAAABJRU5ErkJggg==;imageBorder=#000000;" vertex="1" parent="1">
          <mxGeometry x="1260" y="390" width="40" height="40" as="geometry" />
        </mxCell>
        <mxCell id="9UX8vcz3NQt4yauY_FG5-28" value="APP GATEWAY故障" style="whiteSpace=wrap;html=1;" vertex="1" parent="1">
          <mxGeometry x="290" y="800" width="160" height="60" as="geometry" />
        </mxCell>
        <mxCell id="9UX8vcz3NQt4yauY_FG5-30" value="" style="shape=image;verticalLabelPosition=bottom;verticalAlign=top;aspect=fixed;imageAspect=0;image=data:image/png,iVBORw0KGgoAAAANSUhEUgAAAMgAAADICAYAAACtWK6eAAAGyklEQVR4Xu3XUYpdZRSE0ZuZ6chCRmaGJnlRAhqKvmdD+Hr5vLuh/upTK355+c8LeIH/fYEv3sYLeIH/fwEfiL8OL/CLF/CB+PPwAj4QfwNe4GMvQJCPvZuf+iQv4AP5JEWL+bEX8IF87N381Cd5AR/IJylazI+9gA/k33f74/V6ff3YM/7zU99er9f3N3/Huz9eyfHuOzzy8z6Qnz+Qv9581T9/kw+kkOPNKp75cR+ID+S//pJ+hw/9mb/wN3+LD8QH4gP5xUfkA/GB+EB8IJOzP/7ntvBv90qOqbTrI4IQhCAEmXamsryVHFNp10cEIQhBCDLtTGV5Kzmm0q6PCEIQghBk2pnK8lZyTKVdHxGEIAQhyLQzleWt5JhKuz4iCEEIQpBpZyrLW8kxlXZ9RBCCEIQg085UlreSYyrt+oggBCEIQaadqSxvJcdU2vURQQhCEIJMO1NZ3kqOqbTrI4IQhCAEmXamsryVHFNp10cEIQhBCDLtTGV5Kzmm0q6PCEIQghBk2pnK8lZyTKVdHxGEIAQhyLQzleWt5JhKuz4iCEEIQpBpZyrLW8kxlXZ9RBCCEIQg085UlreSYyrt+oggBCEIQaadqSxvJcdU2vURQQhCEIJMO1NZ3kqOqbTrI4IQhCAEmXamsryVHFNp10cEIQhBCDLtTGV5Kzmm0q6PCEIQghBk2pnK8lZyTKVdHxGEIAQhyLQzleWt5JhKuz4iCEEIQpBpZyrLW8kxlXZ9RBCCEIQg085UlreSYyrt+oggBCEIQaadqSxvJcdU2vURQQhCEIJMO1NZ3kqOqbTrI4IQhCAEmXamsryVHFNp10cEIQhBCDLtTGV5Kzmm0q6PCEIQghBk2pnK8lZyTKVdHxGEIAQhyLQzleWt5JhKuz4iCEEIQpBpZyrLW8kxlXZ9RBCCEIQg085UlreSYyrt+oggBCEIQaadqSxvJcdU2vURQQhCEIJMO1NZ3kqOqbTrI4IQhCAEmXamsryVHFNp10cEIQhBCDLtTGV5Kzmm0q6PCEIQghBk2pnK8lZyTKVdHxGEIAQhyLQzleWt5JhKuz4iCEEIQpBpZyrLW8kxlXZ9RBCCEIQg085UlreSYyrt+oggBCEIQaadqSxvJcdU2vURQQhCEIJMO1NZ3kqOqbTrI4IQhCAEmXamsryVHFNp10cEIQhBCDLtTGV5Kzmm0q6PCEIQghBk2pnK8lZyTKVdHxGEIAQhyLQzleWt5JhKuz4iCEEIQpBpZyrLW8kxlXZ9RBCCEIQg085UlreSYyrt+oggBCEIQaadqSxvJcdU2vURQQhCEIJMO1NZ3kqOqbTrI4IQhCAEmXamsryVHFNp10cEIQhBCDLtTGV5Kzmm0q6PCEIQghBk2pnK8lZyTKVdHxGEIAQhyLQzleWt5JhKuz4iCEEIQpBpZyrLW8kxlXZ9RBCCEIQg085UlreSYyrt+oggBCEIQaadqSxvJcdU2vURQQhCEIJMO1NZ3kqOqbTrI4IQhCAEmXamsryVHFNp10cEIQhBCDLtTGV5Kzmm0q6PCEIQghBk2pnK8lZyTKVdHxGEIAQhyLQzleWt5JhKuz4iCEEIQpBpZyrLW8kxlXZ9RBCCEIQg085UlreSYyrt+oggBCEIQaadqSxvJcdU2vURQQhCEIJMO1NZ3kqOqbTrI4IQhCAEmXamsryVHFNp10cEIQhBCDLtTGV5Kzmm0q6PCEIQghBk2pnK8lZyTKVdHxGEIAQhyLQzleWt5JhKuz4iCEEIQpBpZyrLW8kxlXZ9RBCCEIQg085UlreSYyrt+oggBCEIQaadqSxvJcdU2vURQQhCEIJMO1NZ3kqOqbTrI4IQhCAEmXamsryVHFNp10cEIQhBCDLtTGV5Kzmm0q6PCEIQghBk2pnK8lZyTKVdHxGEIAQhyLQzleWt5JhKuz4iCEEIQpBpZyrLW8kxlXZ9RBCCEIQg085UlreSYyrt+oggBCEIQaadqSxvJcdU2vURQQhCEIJMO1NZ3kqOqbTrI4IQhCAEmXamsryVHFNp10cEIQhBCDLtTGV5Kzmm0q6PCEIQghBk2pnK8lZyTKVdHxGEIAQhyLQzleWt5JhKuz4iCEEIQpBpZyrLW8kxlXZ9RBCCEIQg085UlreSYyrt+oggBCEIQaadqSxvJcdU2vURQQhCEIJMO1NZ3kqOqbTrI4L8LMjXNx/82+v1+v7m73j3x398IIUc777DIz/vA3nkGf2S6gv4QKrNyvXIC/hAHnlGv6T6Aj6QarNyPfICPpBHntEvqb6AD6TarFyPvIAP5JFn9EuqL+ADqTYr1yMv8DefC9znvsTj7AAAAABJRU5ErkJggg==;imageBorder=#000000;" vertex="1" parent="1">
          <mxGeometry x="270" y="650" width="40" height="40" as="geometry" />
        </mxCell>
        <mxCell id="9UX8vcz3NQt4yauY_FG5-33" style="edgeStyle=orthogonalEdgeStyle;rounded=0;orthogonalLoop=1;jettySize=auto;html=1;endArrow=open;sourcePerimeterSpacing=0;targetPerimeterSpacing=0;" edge="1" parent="1" source="9UX8vcz3NQt4yauY_FG5-32" target="9UX8vcz3NQt4yauY_FG5-28">
          <mxGeometry relative="1" as="geometry" />
        </mxCell>
        <mxCell id="9UX8vcz3NQt4yauY_FG5-32" value="NGINX故障" style="whiteSpace=wrap;html=1;" vertex="1" parent="1">
          <mxGeometry x="290" y="700" width="160" height="60" as="geometry" />
        </mxCell>
        <mxCell id="9UX8vcz3NQt4yauY_FG5-34" value="APP服务故障" style="whiteSpace=wrap;html=1;" vertex="1" parent="1">
          <mxGeometry x="510" y="530" width="160" height="60" as="geometry" />
        </mxCell>
      </root>
    </mxGraphModel>
  </diagram>
</mxfile>
